<?xml version="1.0" encoding="utf-8"?>
<!-- Generator: Adobe Illustrator 16.0.4, SVG Export Plug-In . SVG Version: 6.00 Build 0)  -->
<!DOCTYPE svg PUBLIC "-//W3C//DTD SVG 1.1//EN" "http://www.w3.org/Graphics/SVG/1.1/DTD/svg11.dtd">
<svg version="1.1" id="Layer_1" xmlns="http://www.w3.org/2000/svg" xmlns:xlink="http://www.w3.org/1999/xlink" x="0px" y="0px"
	 width="348px" height="118px" viewBox="0 0 348 118" enable-background="new 0 0 348 118" xml:space="preserve">
<g>
	<g>
		<polygon fill="#222222" points="72.254,0 50.136,0 50.136,67.83 72.254,67.83 72.254,42.763 75.204,42.763 75.204,67.83 
			97.322,67.83 97.322,20.644 72.254,20.644 		"/>
	</g>
	<path fill="#222222" d="M19.169,42.763c3.258,0,5.898,2.641,5.898,5.898V67.83h22.119V0H25.068v20.644H0v22.119H19.169z"/>
	<g>
		<polygon fill="#222222" points="75.204,95.848 72.254,95.848 72.254,70.779 50.136,70.779 50.136,117.967 97.322,117.967 
			97.322,70.779 75.204,70.779 		"/>
	</g>
	<g>
		<polygon fill="#222222" points="272.797,92.898 275.746,92.898 275.746,117.967 297.865,117.967 297.865,70.779 250.678,70.779 
			250.678,117.967 272.797,117.967 		"/>
	</g>
	<g>
		<polygon fill="#222222" points="150.407,117.967 172.525,117.967 172.525,92.898 197.594,92.898 197.594,70.779 150.407,70.779 		
			"/>
	</g>
	<polygon fill="#222222" points="300.813,70.779 300.813,50.136 322.932,50.136 322.932,70.779 348,70.779 348,92.898 
		322.932,92.898 322.932,117.967 300.813,117.967 300.813,70.779 	"/>
	<polygon fill="#222222" points="100.271,70.779 100.271,117.967 122.39,117.967 122.39,82.576 122.39,70.779 	"/>
	<path fill="#222222" d="M135.661,70.043c-7.318,0-13.271,5.953-13.271,13.271s5.954,13.271,13.271,13.271
		s13.271-5.954,13.271-13.271S142.979,70.043,135.661,70.043z"/>
	<g>
		<polygon fill="#222222" points="47.187,94.379 47.187,94.373 47.187,94.367 		"/>
		<path fill="#222222" d="M22.119,95.848v-2.949h25.02c-0.761-12.343-11.011-22.119-23.546-22.119C10.563,70.779,0,81.343,0,94.373
			s10.563,23.594,23.593,23.594c12.535,0,22.785-9.776,23.546-22.119H22.119z"/>
	</g>
	<path fill="#222222" d="M121.975,37.52v-2.949h23.417c-3.692-8.21-11.942-13.927-21.528-13.927
		c-13.03,0-23.593,10.563-23.593,23.593s10.563,23.593,23.593,23.593c9.585,0,17.835-5.717,21.528-13.926h-23.417v-2.949h24.511
		c0.631-2.129,0.972-4.384,0.972-6.718s-0.34-4.588-0.972-6.717H121.975z"/>
	<path fill="#222222" d="M224.441,96.153l-2.086-2.086l23.288-23.288h-45.101v47.188h47.186V72.865L224.441,96.153z
		 M212.339,112.068c-3.257,0-5.897-2.641-5.897-5.898s2.641-5.898,5.897-5.898s5.898,2.641,5.898,5.898
		S215.596,112.068,212.339,112.068z"/>
</g>
</svg>
